<svg width="67" height="9" viewBox="0 0 67 9" fill="none" xmlns="http://www.w3.org/2000/svg">
<path d="M3.69599 0.120004H5.33999L8.97599 8.52H7.25999L4.46399 1.74L1.67999 8.52H-6.59237e-06L3.69599 0.120004ZM1.93199 5.376H6.93599V6.684H1.93199V5.376ZM9.76884 0.120004H11.2928L16.0448 6.576L15.6248 6.72V0.120004H17.1848V8.52H15.6488L10.9208 2.076L11.3408 1.932V8.52H9.76884V0.120004ZM22.8253 0.0240042C23.4573 0.0240042 24.0453 0.132004 24.5893 0.348004C25.1333 0.564004 25.6053 0.868004 26.0053 1.26C26.4133 1.652 26.7293 2.108 26.9533 2.628C27.1853 3.14 27.3013 3.7 27.3013 4.308C27.3013 4.908 27.1853 5.472 26.9533 6C26.7293 6.528 26.4133 6.988 26.0053 7.38C25.6053 7.772 25.1333 8.08 24.5893 8.304C24.0453 8.52 23.4573 8.628 22.8253 8.628C22.1933 8.628 21.6053 8.52 21.0613 8.304C20.5253 8.08 20.0533 7.772 19.6453 7.38C19.2373 6.988 18.9173 6.532 18.6853 6.012C18.4613 5.484 18.3493 4.916 18.3493 4.308C18.3493 3.7 18.4613 3.136 18.6853 2.616C18.9173 2.096 19.2373 1.644 19.6453 1.26C20.0533 0.868004 20.5253 0.564004 21.0613 0.348004C21.6053 0.132004 22.1933 0.0240042 22.8253 0.0240042ZM22.8493 1.38C22.4573 1.38 22.0893 1.456 21.7453 1.608C21.4013 1.752 21.0973 1.96 20.8333 2.232C20.5693 2.496 20.3613 2.804 20.2093 3.156C20.0653 3.508 19.9933 3.892 19.9933 4.308C19.9933 4.724 20.0693 5.112 20.2213 5.472C20.3733 5.824 20.5813 6.136 20.8453 6.408C21.1093 6.68 21.4133 6.892 21.7573 7.044C22.1013 7.196 22.4653 7.272 22.8493 7.272C23.2333 7.272 23.5933 7.196 23.9293 7.044C24.2733 6.892 24.5733 6.68 24.8293 6.408C25.0853 6.136 25.2853 5.824 25.4293 5.472C25.5813 5.112 25.6573 4.724 25.6573 4.308C25.6573 3.892 25.5813 3.508 25.4293 3.156C25.2853 2.804 25.0853 2.496 24.8293 2.232C24.5733 1.96 24.2733 1.752 23.9293 1.608C23.5933 1.456 23.2333 1.38 22.8493 1.38ZM32.2044 0.120004C32.8044 0.120004 33.3204 0.204004 33.7524 0.372004C34.1844 0.540004 34.5164 0.780004 34.7484 1.092C34.9804 1.404 35.0964 1.78 35.0964 2.22C35.0964 2.684 34.9644 3.084 34.7004 3.42C34.4444 3.756 34.0884 3.976 33.6324 4.08C34.1844 4.184 34.6204 4.424 34.9404 4.8C35.2604 5.176 35.4204 5.644 35.4204 6.204C35.4204 6.684 35.2924 7.1 35.0364 7.452C34.7804 7.796 34.4204 8.06 33.9564 8.244C33.5004 8.428 32.9524 8.52 32.3124 8.52H28.4724V0.120004H32.2044ZM32.1204 3.576C32.5364 3.576 32.8604 3.48 33.0924 3.288C33.3324 3.096 33.4524 2.828 33.4524 2.484C33.4524 2.156 33.3324 1.9 33.0924 1.716C32.8604 1.532 32.5364 1.444 32.1204 1.452H30.0804V3.576H32.1204ZM32.1204 7.188C32.6324 7.196 33.0324 7.096 33.3204 6.888C33.6084 6.68 33.7524 6.388 33.7524 6.012C33.7524 5.66 33.6084 5.384 33.3204 5.184C33.0324 4.976 32.6324 4.872 32.1204 4.872H30.0804V7.188H32.1204ZM36.7402 0.120004H42.8962V1.464H38.3482V3.636H42.4282V4.968H38.3482V7.176H43.0402V8.52H36.7402V0.120004ZM47.0858 0.120004H48.7298L52.3658 8.52H50.6498L47.8538 1.74L45.0698 8.52H43.3898L47.0858 0.120004ZM45.3218 5.376H50.3258V6.684H45.3218V5.376ZM58.3801 2.196C58.0841 2.012 57.7801 1.86 57.4681 1.74C57.1641 1.62 56.8761 1.536 56.6041 1.488C56.3321 1.432 56.0841 1.404 55.8601 1.404C55.4841 1.404 55.1801 1.476 54.9481 1.62C54.7241 1.764 54.6121 1.976 54.6121 2.256C54.6121 2.512 54.6921 2.72 54.8521 2.88C55.0201 3.04 55.2361 3.172 55.5001 3.276C55.7721 3.38 56.0681 3.48 56.3881 3.576C56.7081 3.672 57.0281 3.78 57.3481 3.9C57.6681 4.012 57.9601 4.16 58.2241 4.344C58.4961 4.528 58.7121 4.764 58.8721 5.052C59.0321 5.34 59.1121 5.7 59.1121 6.132C59.1121 6.652 58.9721 7.096 58.6921 7.464C58.4121 7.832 58.0281 8.116 57.5401 8.316C57.0601 8.516 56.5121 8.616 55.8961 8.616C55.4481 8.616 55.0081 8.56 54.5761 8.448C54.1521 8.328 53.7481 8.168 53.3641 7.968C52.9881 7.768 52.6481 7.536 52.3441 7.272L53.0161 5.964C53.3041 6.228 53.6161 6.456 53.9521 6.648C54.2881 6.832 54.6241 6.976 54.9601 7.08C55.3041 7.176 55.6241 7.224 55.9201 7.224C56.3761 7.224 56.7281 7.136 56.9761 6.96C57.2321 6.784 57.3601 6.536 57.3601 6.216C57.3601 5.952 57.2761 5.74 57.1081 5.58C56.9481 5.42 56.7361 5.288 56.4721 5.184C56.2081 5.072 55.9121 4.976 55.5841 4.896C55.2641 4.808 54.9441 4.708 54.6241 4.596C54.3041 4.476 54.0081 4.328 53.7361 4.152C53.4721 3.968 53.2561 3.736 53.0881 3.456C52.9281 3.176 52.8481 2.82 52.8481 2.388C52.8481 1.9 52.9801 1.48 53.2441 1.128C53.5081 0.768004 53.8721 0.492004 54.3361 0.300004C54.8081 0.100004 55.3601 3.8147e-06 55.9921 3.8147e-06C56.5521 3.8147e-06 57.0961 0.0800037 57.6241 0.240004C58.1601 0.400004 58.6281 0.612004 59.0281 0.876004L58.3801 2.196ZM65.6752 2.196C65.3792 2.012 65.0752 1.86 64.7632 1.74C64.4592 1.62 64.1712 1.536 63.8992 1.488C63.6272 1.432 63.3792 1.404 63.1552 1.404C62.7792 1.404 62.4752 1.476 62.2432 1.62C62.0192 1.764 61.9072 1.976 61.9072 2.256C61.9072 2.512 61.9872 2.72 62.1472 2.88C62.3152 3.04 62.5312 3.172 62.7952 3.276C63.0672 3.38 63.3632 3.48 63.6832 3.576C64.0032 3.672 64.3232 3.78 64.6432 3.9C64.9632 4.012 65.2552 4.16 65.5192 4.344C65.7912 4.528 66.0072 4.764 66.1672 5.052C66.3272 5.34 66.4072 5.7 66.4072 6.132C66.4072 6.652 66.2672 7.096 65.9872 7.464C65.7072 7.832 65.3232 8.116 64.8352 8.316C64.3552 8.516 63.8072 8.616 63.1912 8.616C62.7432 8.616 62.3032 8.56 61.8712 8.448C61.4472 8.328 61.0432 8.168 60.6592 7.968C60.2832 7.768 59.9432 7.536 59.6392 7.272L60.3112 5.964C60.5992 6.228 60.9112 6.456 61.2472 6.648C61.5832 6.832 61.9192 6.976 62.2552 7.08C62.5992 7.176 62.9192 7.224 63.2152 7.224C63.6712 7.224 64.0232 7.136 64.2712 6.96C64.5272 6.784 64.6552 6.536 64.6552 6.216C64.6552 5.952 64.5712 5.74 64.4032 5.58C64.2432 5.42 64.0312 5.288 63.7672 5.184C63.5032 5.072 63.2072 4.976 62.8792 4.896C62.5592 4.808 62.2392 4.708 61.9192 4.596C61.5992 4.476 61.3032 4.328 61.0312 4.152C60.7672 3.968 60.5512 3.736 60.3832 3.456C60.2232 3.176 60.1432 2.82 60.1432 2.388C60.1432 1.9 60.2752 1.48 60.5392 1.128C60.8032 0.768004 61.1672 0.492004 61.6312 0.300004C62.1032 0.100004 62.6552 3.8147e-06 63.2872 3.8147e-06C63.8472 3.8147e-06 64.3912 0.0800037 64.9192 0.240004C65.4552 0.400004 65.9232 0.612004 66.3232 0.876004L65.6752 2.196Z" fill="black"/>
</svg>
