<svg width="573" height="201" viewBox="0 0 573 201" fill="none" xmlns="http://www.w3.org/2000/svg">
<rect width="572.5" height="201" fill="white"/>
<path d="M24.664 27.704H44.632V54.584H68.536V27.704H88.504V95H68.536V69.944H44.632V95H24.664V27.704ZM97.9315 27.704H152.94V43.064H117.9V53.624H149.676V68.984H117.9V79.64H153.9V95H97.9315V27.704ZM161.543 27.704H181.511V78.296H209.735V95H161.543V27.704ZM214.748 27.704H234.716V78.296H262.94V95H214.748V27.704ZM300.785 26.456C306.097 26.456 310.961 27.32 315.377 29.048C319.857 30.776 323.729 33.208 326.993 36.344C330.321 39.48 332.881 43.16 334.673 47.384C336.529 51.608 337.457 56.216 337.457 61.208C337.457 66.2 336.529 70.872 334.673 75.224C332.881 79.512 330.321 83.224 326.993 86.36C323.729 89.496 319.857 91.96 315.377 93.752C310.961 95.48 306.097 96.344 300.785 96.344C295.473 96.344 290.577 95.48 286.097 93.752C281.681 91.96 277.809 89.496 274.481 86.36C271.217 83.224 268.657 79.512 266.801 75.224C265.009 70.936 264.113 66.264 264.113 61.208C264.113 56.152 265.009 51.512 266.801 47.288C268.657 43.064 271.217 39.416 274.481 36.344C277.809 33.208 281.681 30.776 286.097 29.048C290.577 27.32 295.473 26.456 300.785 26.456ZM301.073 43.064C298.833 43.064 296.689 43.512 294.641 44.408C292.657 45.304 290.897 46.584 289.361 48.248C287.889 49.912 286.705 51.864 285.809 54.104C284.977 56.28 284.561 58.68 284.561 61.304C284.561 63.928 285.009 66.36 285.905 68.6C286.801 70.84 287.985 72.792 289.457 74.456C290.993 76.12 292.753 77.432 294.737 78.392C296.721 79.288 298.833 79.736 301.073 79.736C303.249 79.736 305.297 79.288 307.217 78.392C309.137 77.432 310.833 76.12 312.305 74.456C313.777 72.792 314.929 70.84 315.761 68.6C316.593 66.36 317.009 63.928 317.009 61.304C317.009 58.68 316.593 56.28 315.761 54.104C314.929 51.864 313.777 49.912 312.305 48.248C310.833 46.584 309.137 45.304 307.217 44.408C305.297 43.512 303.249 43.064 301.073 43.064ZM139.351 108.704H198.487V124.64H178.903V176H158.839V124.64H139.351V108.704ZM202.8 108.704H222.768V135.584H246.672V108.704H266.64V176H246.672V150.944H222.768V176H202.8V108.704ZM276.068 108.704H331.076V124.064H296.036V134.624H327.812V149.984H296.036V160.64H332.036V176H276.068V108.704ZM371.071 108.704C380.159 108.704 387.167 110.784 392.095 114.944C397.023 119.104 399.487 124.96 399.487 132.512C399.487 140.576 397.023 146.848 392.095 151.328C387.167 155.744 380.159 157.952 371.071 157.952H359.647V176H339.679V108.704H371.071ZM371.071 142.496C374.079 142.496 376.383 141.696 377.983 140.096C379.647 138.496 380.479 136.16 380.479 133.088C380.479 130.208 379.647 128 377.983 126.464C376.383 124.864 374.079 124.064 371.071 124.064H359.647V142.496H371.071ZM366.655 150.656H386.047L401.791 176H379.135L366.655 150.656ZM407.322 108.704H462.33V124.064H427.29V134.624H459.066V149.984H427.29V160.64H463.29V176H407.322V108.704ZM469.589 108.896H488.021V126.368L484.661 152H473.045L469.589 126.368V108.896ZM478.517 158.72C481.141 158.72 483.285 159.552 484.949 161.216C486.677 162.88 487.541 165.056 487.541 167.744C487.541 170.432 486.677 172.608 484.949 174.272C483.285 175.936 481.141 176.768 478.517 176.768C475.829 176.768 473.653 175.936 471.989 174.272C470.325 172.608 469.493 170.432 469.493 167.744C469.493 165.056 470.325 162.88 471.989 161.216C473.653 159.552 475.829 158.72 478.517 158.72Z" fill="black"/>
</svg>
