<svg width="1145" height="201" viewBox="0 0 1145 201" fill="none" xmlns="http://www.w3.org/2000/svg">
<g clip-path="url(#clip0_7_74)">
<rect width="1145" height="201" fill="white"/>
<path fill-rule="evenodd" clip-rule="evenodd" d="M-110.994 -75.993C-110.994 -74.831 -98.9382 -62.548 -94.4942 -59.183C-89.8622 -55.676 -77.7392 -47.949 -75.3872 -47.004C-74.2292 -46.539 -70.8542 -44.646 -67.8872 -42.798C-62.6922 -39.562 -56.6332 -37 -54.1732 -37C-52.2912 -37 -56.1972 -40.272 -61.3112 -42.979C-63.8872 -44.343 -65.9942 -45.805 -65.9942 -46.229C-65.9942 -46.653 -66.6682 -47 -67.4912 -47C-68.3152 -47 -70.6772 -48.501 -72.7412 -50.336C-74.8052 -52.172 -79.4192 -55.625 -82.9942 -58.011C-86.5692 -60.397 -91.2942 -63.785 -93.4942 -65.54C-98.4112 -69.463 -109.508 -77 -110.365 -77C-110.711 -77 -110.994 -76.547 -110.994 -75.993ZM-150.994 -69.195C-150.994 -67.063 -133.656 -53 -131.027 -53C-130.551 -53 -130.011 -52.663 -129.827 -52.25C-129.644 -51.837 -127.919 -50.756 -125.994 -49.847C-124.069 -48.937 -118.219 -46.184 -112.994 -43.729C-107.769 -41.273 -100.498 -37.838 -96.8362 -36.094C-93.1742 -34.35 -86.5112 -31.64 -82.0292 -30.071C-77.5462 -28.502 -73.6052 -26.944 -73.2702 -26.609C-72.9352 -26.274 -71.9482 -25.985 -71.0772 -25.966C-70.2062 -25.947 -67.6942 -25.063 -65.4942 -24C-63.2942 -22.937 -60.9312 -22.053 -60.2442 -22.034C-59.5562 -22.015 -58.9942 -21.58 -58.9942 -21.067C-58.9942 -20.554 -57.9822 -19.824 -56.7442 -19.443C-55.5062 -19.063 -53.7272 -17.948 -52.7892 -16.966C-51.2932 -15.399 -51.2712 -15.108 -52.6112 -14.593C-53.4512 -14.271 -54.8942 -14.395 -55.8162 -14.87C-56.7392 -15.344 -59.9692 -16.041 -62.9942 -16.418C-66.0192 -16.795 -70.0692 -17.5 -71.9942 -17.984C-73.9192 -18.469 -79.7692 -19.828 -84.9942 -21.004C-90.2192 -22.181 -95.3942 -23.535 -96.4942 -24.014C-97.5942 -24.492 -100.069 -25.179 -101.994 -25.541C-105.39 -26.178 -111.266 -27.846 -119.494 -30.506C-121.694 -31.218 -126.419 -32.593 -129.994 -33.563C-133.569 -34.533 -139.869 -36.424 -143.994 -37.766C-148.119 -39.107 -152.844 -40.583 -154.494 -41.046C-156.144 -41.509 -160.853 -43.038 -164.959 -44.444C-173.503 -47.37 -172.994 -47.261 -172.994 -46.153C-172.994 -44.109 -168.805 -41.167 -159.494 -36.673C-145.846 -30.084 -144.094 -29.337 -139.494 -28.147C-129.759 -25.627 -113.235 -21.095 -110.494 -20.194C-108.844 -19.651 -104.794 -18.445 -101.494 -17.513C-89.3802 -14.092 -84.6002 -11.384 -87.7442 -9.72101C-89.9262 -8.56801 -121.892 -12.147 -148.494 -16.523C-164.597 -19.172 -169.994 -19.482 -169.994 -17.758C-169.994 -15.949 -166.098 -14.297 -151.994 -10.128C-143.373 -7.57899 -137.574 -5.23999 -137.216 -4.16599C-137.002 -3.52499 -137.738 -3 -138.852 -3C-139.965 -3 -141.154 -2.55 -141.494 -2C-141.834 -1.45 -141.668 -1 -141.126 -1C-140.584 -1 -139.995 -0.281992 -139.817 0.596008C-139.497 2.17701 -133.119 4.95599 -129.745 4.98499C-128.782 4.99299 -125.751 6.238 -123.009 7.75C-119.522 9.673 -118.018 11.126 -118.008 12.581C-117.993 14.767 -116.936 15.463 -108.028 19.163C-102.718 21.367 -98.9942 24.122 -98.9942 25.845C-98.9942 27.364 -95.5902 29.626 -90.4942 31.493C-84.9172 33.537 -81.0732 35.981 -81.0252 37.513C-81.0082 38.07 -80.1282 38.97 -79.0692 39.513C-73.2102 42.518 -65.8472 47.372 -64.7312 48.966C-64.0262 49.972 -61.5392 51.791 -59.2032 53.008C-55.8072 54.778 -54.0082 55.094 -50.2252 54.583L-45.4942 53.945L-47.7442 55.883C-48.9822 56.949 -49.9942 58.215 -49.9942 58.696C-49.9942 60.004 -41.8782 65.991 -39.1922 66.665C-37.6632 67.049 -34.6042 66.153 -30.3332 64.07C-22.3042 60.155 -18.4182 60.3 -25.1792 64.262C-27.7482 65.768 -30.6702 67.014 -31.6722 67.032C-32.6742 67.049 -34.2602 67.645 -35.1952 68.357C-36.7332 69.525 -36.3792 70.137 -31.5212 74.71C-26.4722 79.463 -26.2342 79.898 -27.6152 81.869C-28.8452 83.626 -28.8832 84.66 -27.8462 88.233C-26.0512 94.417 -24.4532 96.489 -19.8912 98.546C-16.3932 100.124 -15.9002 100.729 -16.3202 102.928C-17.0112 106.539 -15.7262 108.378 -10.0892 111.847C-6.25223 114.207 -5.26624 115.325 -5.66724 116.857C-6.30624 119.3 -4.17122 120.504 2.29178 121.347C5.32378 121.743 7.78177 121.532 8.99677 120.774C11.5998 119.148 13.0028 120.798 10.5448 122.595C8.61177 124.008 8.61478 124.053 10.7578 126.197C13.7218 129.161 21.8508 129.64 34.6538 127.604C40.2038 126.722 45.0368 126 45.3938 126C45.7518 126 45.7858 127.028 45.4708 128.284C44.6358 131.61 51.3208 134.48 57.6818 133.526C63.0018 132.728 62.9108 134.42 57.5808 135.42C55.6848 135.776 51.9668 137.546 49.3198 139.354C44.3058 142.779 36.7328 145.629 29.0198 146.995C23.8838 147.904 20.0648 149.225 11.5058 153.051C-0.985232 158.634 -9.20123 159.73 -58.9942 162.453C-73.0192 163.22 -85.8442 164.133 -87.4942 164.482C-89.1442 164.831 -97.6942 165.496 -106.494 165.961C-115.294 166.425 -124.584 167.276 -127.137 167.852C-135.378 169.711 -141.052 174.415 -142.396 180.5C-142.887 182.725 -144.487 184.401 -148.591 186.986C-154.462 190.686 -157.974 195.201 -158.026 199.118C-158.043 200.428 -158.718 202.374 -159.526 203.441C-160.333 204.509 -160.994 206.62 -160.994 208.132C-160.994 209.645 -161.444 211.16 -161.994 211.5C-164.359 212.962 -162.93 216.773 -158.994 219.5C-156.255 221.398 -154.994 223.01 -154.994 224.613C-154.994 226.763 -159.311 235.747 -162.615 240.473C-165.001 243.885 -164.306 247.826 -160.744 251.093C-158.957 252.732 -156.481 254.331 -155.244 254.645C-153.74 255.027 -152.994 255.969 -152.994 257.486C-152.994 258.734 -152.324 260.311 -151.506 260.99C-149.722 262.47 -134.413 265.268 -132.105 264.535C-131.21 264.251 -127.395 264.39 -123.627 264.844C-119.858 265.298 -114.687 265.321 -112.134 264.896C-109.582 264.471 -102.544 263.397 -96.4942 262.509C-90.4442 261.621 -83.6942 260.283 -81.4942 259.536C-79.2942 258.788 -72.9942 257.405 -67.4942 256.462C-45.8042 252.745 -29.3642 248.252 -16.4822 242.521C2.24276 234.191 16.9528 231.107 53.0058 227.955C59.8808 227.353 66.6998 226.218 68.1598 225.431C72.4848 223.099 77.5008 223.58 79.4208 226.51C80.9678 228.872 80.9498 229.144 79.1088 231.12C78.0328 232.275 77.3628 233.766 77.6188 234.435C78.4588 236.624 85.9068 239.152 93.7088 239.898C104.983 240.975 108.974 240.078 114.478 235.233C117.049 232.97 119.737 231.343 120.451 231.617C121.166 231.891 123.161 234.08 124.884 236.48C128.462 241.461 132.649 244.323 138.723 245.938C141.801 246.757 144.857 248.942 150.036 254.03C154.013 257.936 158.005 261 159.119 261C162.396 261 166.863 263.827 173.081 269.837C176.317 272.964 180.662 276.401 182.735 277.474C186.718 279.535 190.006 282.366 190.006 283.736C190.006 284.679 193.582 287.997 196.294 289.571C197.309 290.16 201.447 293.76 205.489 297.571C214.798 306.349 218.658 309.389 223.298 311.602C225.338 312.575 227.006 313.964 227.006 314.689C227.006 316.859 236.458 326 238.702 326C240.884 326 248.006 333.32 248.006 335.563C248.006 337.034 256.113 344 257.825 344C259.599 344 265.001 349.756 266.531 353.277C269.167 359.341 276.567 366 280.671 366C283.698 366 290.006 369.85 290.006 371.698C290.006 374.564 293.275 380.059 297.928 385.016C302.326 389.7 302.907 390 307.584 390C313.428 390 317.006 392.088 317.006 395.498C317.006 396.809 317.405 398.129 317.893 398.43C318.38 398.731 319.08 400.58 319.447 402.537C319.814 404.495 321.44 408.344 323.06 411.092C324.68 413.84 326.006 416.508 326.006 417.021C326.006 417.534 327.079 418.657 328.391 419.517C330.584 420.953 331.209 420.915 336.141 419.04C339.092 417.919 341.562 417.001 341.631 417.001C342.122 416.999 343.241 424.58 343.507 429.708C343.894 437.171 344.723 441.232 346.594 444.817C347.364 446.293 347.996 448.288 348 449.25C348.003 450.212 348.456 451 349.006 451C349.556 451 350.006 451.597 350.006 452.326C350.006 453.055 351.126 454.704 352.496 455.99C354.947 458.293 355.017 458.3 357.078 456.435C359.648 454.109 361.55 449.707 362.497 443.898C362.891 441.479 363.806 438.15 364.531 436.5C367.429 429.905 371.486 412.221 371.299 407C371.218 404.754 371.353 404.347 371.674 405.864L372.175 408.228L373.59 405.5C374.369 403.999 375.006 402.164 375.006 401.421C375.006 400.678 376.019 399.544 377.256 398.9C378.494 398.256 379.184 398.074 378.791 398.496C378.398 398.918 378.623 400.216 379.291 401.381C380.093 402.779 380.527 408.774 380.567 419C380.616 431.591 380.944 435.063 382.311 437.5C383.236 439.15 383.996 441.302 384 442.281C384.003 443.261 384.681 444.322 385.506 444.638C386.331 444.955 387.006 445.845 387.006 446.616C387.006 448.165 390.675 452.728 395.929 457.712C398.38 460.037 399.698 460.671 400.572 459.945C402.749 458.138 403.9 446.99 404.491 422C405.095 396.444 405.624 390 407.115 390C407.605 390 408.006 390.62 408.006 391.378C408.006 392.135 408.654 393.293 409.447 393.951C410.239 394.608 410.658 395.743 410.378 396.472C410.099 397.201 410.358 398.099 410.954 398.468C411.551 398.837 411.838 399.463 411.593 399.859C411.348 400.255 411.592 404.162 412.135 408.54C413.027 415.736 415.29 422.541 419.855 431.758C421.621 435.321 427.225 442 428.45 442C428.873 442 430.966 443.384 433.101 445.075C435.237 446.767 437.777 448.001 438.745 447.817C440.859 447.416 441.654 442.628 440.111 439.588C438.606 436.623 435.928 428.272 436.172 427.309C436.285 426.864 435.169 422.764 433.692 418.198C432.215 413.632 431.006 409.247 431.006 408.452C431.006 407.658 430.131 404.419 429.062 401.254C426.406 393.393 425.492 386.324 426.912 384.614C427.536 383.861 427.925 381.777 427.776 379.982C427.628 378.186 427.956 376.571 428.506 376.392C429.377 376.108 433.372 383.744 443.475 405C444.913 408.025 447.393 411.992 448.986 413.815C450.579 415.638 452.023 417.451 452.194 417.844C453.205 420.158 462.655 426.57 466.491 427.544C470.525 428.569 471.006 428.509 471.006 426.989C471.006 426.053 469.508 423.31 467.677 420.894C464.294 416.428 455.006 401.477 455.006 400.497C455.006 400.202 453.909 398.223 452.569 396.1C451.229 393.977 448.951 389.373 447.507 385.87C446.063 382.366 444.277 378.15 443.539 376.5C440.224 369.092 439.006 365.596 439.006 363.492C439.006 362.247 438.334 359.94 437.512 358.364C436.691 356.789 436.016 354.952 436.012 354.281C436.003 352.53 438.827 353.859 439.478 355.913C439.78 356.864 441.319 358.963 442.897 360.577C444.475 362.192 447.211 366.182 448.976 369.445C452.494 375.947 458.353 382.66 464.406 387.124C471.683 392.49 472.126 389.745 465.256 381.857C462.644 378.857 459.381 374.918 458.006 373.103C456.631 371.288 454.806 369.059 453.951 368.151C451.594 365.648 446.426 358.694 445.664 357C445.292 356.175 444.025 353.925 442.848 352C435.515 340.012 429.261 327.522 426.126 318.6C424.988 315.363 423.37 311.955 422.531 311.028C421.692 310.101 421.006 308.617 421.006 307.73C421.006 306.844 420.569 305.848 420.035 305.518C419.501 305.188 417.371 301.336 415.302 296.959C412.994 292.074 410.945 289 409.997 289C408.802 289 408.538 288.107 408.83 285.054C409.052 282.722 408.551 279.795 407.606 277.9C406.726 276.136 406.006 273.749 406.005 272.596C406.005 271.443 404.726 267.798 403.164 264.496C401.601 261.193 399.735 256.693 399.016 254.496C397.128 248.727 390.011 235.166 390.008 237.333C390.005 240.167 387.547 238.697 387.187 235.645C386.965 233.764 386.357 233.028 385.187 233.222C383.79 233.453 383.534 232.693 383.67 228.726C383.779 225.562 383.441 224.026 382.67 224.172C382.03 224.293 380.472 224.042 379.208 223.613C377.768 223.125 376.352 223.298 375.416 224.075C374.284 225.014 373.64 225.034 372.764 224.158C371.887 223.281 372.018 223 373.306 223C374.241 223 375.006 222.55 375.006 222C375.006 221.45 375.733 221 376.623 221C377.811 221 378.08 220.404 377.636 218.75C377.305 217.513 377.027 216.11 377.02 215.633C377.012 215.157 375.903 214.978 374.555 215.235C373.208 215.493 372.136 215.433 372.174 215.102C372.479 212.44 371.819 211.882 369.074 212.485C366.333 213.087 366.122 212.914 365.824 209.826C365.538 206.859 365.099 206.439 361.506 205.695C359.306 205.24 356.493 204.849 355.256 204.828C354.017 204.806 353.006 204.162 353.006 203.394C353.006 202.627 353.456 202 354.006 202C354.556 202 355.006 201.55 355.006 201C355.006 200.45 353.981 200 352.729 200C351.476 200 349.44 199.292 348.204 198.426C346.734 197.397 344.96 197.071 343.076 197.485C339.776 198.209 338.218 196.654 340.042 194.456C341.517 192.679 340.123 192.534 336.674 194.105C334.99 194.873 334.4 195.79 334.744 197.105C335.347 199.413 333.214 199.624 330.447 197.532C328.749 196.247 328.718 196.06 330.197 196.032C332.369 195.991 333.042 194.854 332.385 192.34C332.01 190.907 331.022 190.333 328.929 190.333C326.211 190.333 326.112 190.459 327.567 192.067C329.494 194.197 327.983 195.462 324.542 194.598C322.787 194.158 322.324 193.5 322.715 192.004C323.08 190.609 322.748 190 321.623 190C320.733 190 320.006 190.675 320.006 191.5C320.006 192.466 319.028 193.005 317.256 193.014C315.743 193.021 313.381 193.251 312.006 193.524C310.13 193.897 310.38 193.595 313.006 192.315C316.163 190.776 316.286 190.572 314.256 190.235C312.084 189.874 310.974 187 313.006 187C313.556 187 314.006 186.325 314.006 185.5C314.006 184.675 313.593 184 313.088 184C312.583 184 311.491 183.739 310.661 183.421C309.528 182.986 309.287 183.36 309.696 184.921C310.331 187.35 308.218 187.667 303.155 185.902C299.423 184.601 299.236 183.755 302.24 181.761C304.417 180.315 304.392 180.29 301.24 180.752C298.778 181.114 298.006 180.856 298.006 179.673C298.006 177.8 297.461 177.44 293.256 176.538C290.607 175.97 290.006 176.15 290.006 177.514C290.006 178.434 290.906 179.423 292.006 179.71C294.832 180.449 294.493 182 291.506 182C290.131 182 288.13 181.124 287.059 180.053C285.988 178.982 283.175 177.575 280.809 176.927C276.799 175.828 276.659 175.678 278.756 174.721C282.516 173.006 281.34 172.457 273.756 172.389C269.769 172.353 264.931 171.839 263.006 171.246C261.081 170.653 257.737 169.87 255.575 169.505C253.413 169.14 252.135 168.538 252.734 168.168C253.463 167.717 253.199 166.721 251.937 165.163C250.417 163.287 249.459 162.961 247.028 163.495C245.237 163.888 244.006 163.751 244.006 163.159C244.006 162.609 245.468 161.865 247.256 161.505C253.603 160.227 254.396 159.861 252.888 158.906C252.128 158.425 250.044 158.024 248.256 158.015C246.468 158.007 245.006 157.502 245.006 156.893C245.006 156.284 244.331 156.045 243.506 156.362C241.449 157.151 239.006 156.082 239.006 154.393C239.006 153.627 239.681 153 240.506 153C241.331 153 242.006 152.325 242.006 151.5C242.006 150.064 243.791 149.52 247.006 149.976C248.027 150.121 247.734 149.362 246.085 147.598C243.398 144.723 243.439 144.543 247.006 143.559C248.728 143.084 249.077 143.166 248.128 143.823C246.358 145.047 247.548 147 250.065 147C252.127 147 252.677 148.467 251.003 149.502C250.336 149.914 250.348 150.771 251.038 152.061C252.358 154.525 253.973 154.591 253.336 152.154C252.945 150.66 253.454 150.292 256.009 150.219C259.379 150.123 265.11 152.811 265.772 154.798C266.432 156.779 262.162 156.161 261.069 154.118C260.006 152.131 257.097 150.576 256.173 151.499C255.873 151.8 256.712 152.806 258.038 153.735L260.449 155.423L257.994 156.003C255.924 156.492 256.553 156.942 262.023 158.889C265.589 160.157 269.406 161.573 270.506 162.035C271.606 162.497 273.496 163.151 274.705 163.488C276.097 163.877 276.7 164.634 276.348 165.551C275.975 166.522 276.459 167 277.816 167C278.929 167 280.004 166.506 280.205 165.903C280.824 164.045 288.471 166.708 293.466 170.521C295.963 172.427 298.006 173.484 298.006 172.868C298.006 172.161 299.099 171.969 300.978 172.344C303.378 172.824 304.58 172.349 307.228 169.873C309.031 168.187 312.306 166.014 314.506 165.044C316.706 164.075 320.531 162.367 323.006 161.248C334.787 155.925 336.21 155.708 363.506 155.089L389.506 154.5L389.808 151.897C390.217 148.374 384.153 143.378 371.761 137.03C360.45 131.235 357.182 130.215 346.006 128.99C339.311 128.256 335.782 127.212 329.387 124.073C324.921 121.881 318.396 119.136 314.887 117.972C311.377 116.809 307.606 115.473 306.506 115.004C305.406 114.535 303.381 113.923 302.006 113.644C300.631 113.366 297.481 112.62 295.006 111.987C292.034 111.227 286.771 111.073 279.506 111.534C255.011 113.089 232.866 111.417 225.235 107.436C223.734 106.653 221.494 106.01 220.256 106.006C219.018 106.003 218.006 105.55 218.006 105C218.006 104.45 216.656 104 215.006 104C213.006 104 212.006 103.5 212.006 102.5C212.006 100.801 207.431 100.445 205.04 101.958C204.112 102.545 203.106 102.498 202.301 101.829C200.579 100.401 201.565 99.072 203.894 99.681C207.274 100.565 207.136 98.188 203.536 93.471C201.594 90.928 200.004 88.319 200.003 87.673C200.001 87.028 198.632 83.145 196.961 79.045C194.361 72.663 193.868 70.008 193.543 60.608C193.164 49.655 193.154 49.617 189.834 46.494C184.678 41.642 182.226 40.408 172.006 37.527C166.781 36.054 162.079 34.433 161.556 33.924C161.034 33.416 159.009 32.98 157.056 32.956C155.104 32.932 151.706 32.264 149.506 31.471C147.306 30.679 143.143 30.023 140.256 30.015C137.369 30.007 135.006 29.601 135.006 29.114C135.006 28.626 132.869 27.92 130.256 27.546C127.643 27.171 123.805 25.995 121.725 24.932C119.646 23.869 117.085 23 116.034 23C114.984 23 113.826 22.518 113.462 21.929C113.061 21.279 111.311 21.111 109.006 21.5C106.701 21.889 104.951 21.721 104.55 21.071C104.186 20.482 103.024 20 101.968 20C99.9008 20 79.8068 14.491 76.5058 13.019C75.4058 12.528 72.0308 11.677 69.0058 11.127C52.0548 8.04501 40.0418 4.631 33.1458 0.934998C31.1598 -0.129002 28.2908 -1 26.7708 -1C25.2498 -1 24.0058 -1.38699 24.0058 -1.85999C24.0058 -2.33299 21.5618 -2.97201 18.5738 -3.28101C15.5868 -3.58901 11.6488 -4.47801 9.82376 -5.25601C4.29476 -7.61401 -0.347232 -9.202 -3.24423 -9.728C-4.75623 -10.002 -5.99423 -10.842 -5.99423 -11.593C-5.99423 -12.87 -12.7672 -17 -14.8612 -17C-15.3812 -17 -15.5722 -16.101 -15.2842 -15.002C-14.8172 -13.213 -15.1152 -13.071 -18.1282 -13.643C-19.9792 -13.994 -22.1692 -14.616 -22.9942 -15.025C-23.8192 -15.433 -26.4042 -16.084 -28.7392 -16.471C-31.0732 -16.858 -33.2372 -17.585 -33.5482 -18.087C-33.8582 -18.589 -35.3012 -19 -36.7542 -19C-40.5252 -19 -58.8852 -25.483 -69.6772 -30.625C-74.7282 -33.031 -79.1142 -35 -79.4242 -35C-82.4112 -35 -131.284 -59.792 -136.879 -64.145C-138.191 -65.165 -139.878 -66 -140.629 -66C-141.38 -66 -141.994 -66.406 -141.994 -66.902C-141.994 -67.846 -147.313 -70 -149.643 -70C-150.386 -70 -150.994 -69.638 -150.994 -69.195ZM-17.2442 -35.338C-16.5562 -35.06 -15.9942 -34.245 -15.9942 -33.525C-15.9942 -32.184 -11.1972 -30.464 -10.2092 -31.451C-9.90823 -31.753 -10.3412 -32 -11.1722 -32C-12.0042 -32 -13.4992 -32.9 -14.4942 -34C-15.4892 -35.1 -16.7972 -35.964 -17.3992 -35.921C-18.0312 -35.875 -17.9662 -35.629 -17.2442 -35.338ZM-36.2442 -11.92C-37.4332 -11.228 -38.5552 -11.228 -39.7442 -11.92C-41.1722 -12.751 -40.8492 -12.939 -37.9942 -12.939C-35.1392 -12.939 -34.8162 -12.751 -36.2442 -11.92ZM-29.7252 -10.344C-30.4022 -10.07 -31.7522 -10.053 -32.7252 -10.307C-33.6982 -10.561 -33.1442 -10.785 -31.4942 -10.805C-29.8442 -10.825 -29.0482 -10.618 -29.7252 -10.344ZM-62.2652 -7.396C-62.5972 -7.064 -63.4602 -7.02799 -64.1812 -7.31699C-64.9792 -7.63599 -64.7422 -7.87299 -63.5772 -7.92099C-62.5232 -7.96399 -61.9332 -7.728 -62.2652 -7.396ZM-54.2322 -6.31299C-55.1882 -6.06299 -56.9882 -6.054 -58.2322 -6.293C-59.4762 -6.532 -58.6942 -6.73699 -56.4942 -6.74799C-54.2942 -6.75899 -53.2762 -6.56299 -54.2322 -6.31299ZM-47.2652 -4.396C-47.5972 -4.064 -48.4602 -4.02799 -49.1812 -4.31699C-49.9792 -4.63599 -49.7422 -4.87299 -48.5772 -4.92099C-47.5232 -4.96399 -46.9332 -4.728 -47.2652 -4.396ZM-24.9942 -3C-24.9942 -2.45 -23.9822 -1.948 -22.7442 -1.884C-20.8562 -1.787 -20.7972 -1.69 -22.3752 -1.285C-23.4102 -1.02 -25.2102 -1.283 -26.3752 -1.871C-27.5412 -2.458 -30.0692 -3.10599 -31.9942 -3.30899C-34.5372 -3.57899 -34.0582 -3.724 -30.2442 -3.84C-27.3042 -3.93 -24.9942 -3.56 -24.9942 -3ZM87.2748 33.656C86.5978 33.93 85.2478 33.947 84.2748 33.693C83.3018 33.439 83.8558 33.215 85.5058 33.195C87.1558 33.175 87.9518 33.382 87.2748 33.656ZM53.2748 35.656C52.5978 35.93 51.2478 35.947 50.2748 35.693C49.3018 35.439 49.8558 35.215 51.5058 35.195C53.1558 35.175 53.9518 35.382 53.2748 35.656ZM74.7678 35.687C73.8118 35.937 72.0118 35.946 70.7678 35.707C69.5238 35.468 70.3058 35.263 72.5058 35.252C74.7058 35.241 75.7238 35.437 74.7678 35.687ZM139.006 40C137.049 41.264 135.006 41.264 135.006 40C135.006 39.45 136.244 39.007 137.756 39.015C139.899 39.027 140.175 39.245 139.006 40ZM79.0058 42C75.5868 43.095 72.9578 43.095 75.5058 42C76.6058 41.527 78.4058 41.154 79.5058 41.17C81.1138 41.194 81.0158 41.356 79.0058 42ZM70.0058 43.893C70.0058 44.925 67.5708 46 65.2328 46C63.9048 46 63.9628 45.744 65.5648 44.532C67.7548 42.875 70.0058 42.551 70.0058 43.893ZM152.256 44.69C154.109 45.747 152.625 46.81 148.025 47.72C145.285 48.262 142.863 48.524 142.642 48.303C142.421 48.082 142.75 46.803 143.373 45.46C144.357 43.34 144.967 43.101 148.006 43.641C149.931 43.983 151.843 44.455 152.256 44.69ZM162.006 48C161.181 48.533 158.706 48.931 156.506 48.885C153.036 48.812 152.837 48.695 155.006 48C156.381 47.56 158.856 47.161 160.506 47.115C162.791 47.051 163.149 47.262 162.006 48ZM73.5018 49.007C72.5688 50.516 67.3518 53.012 66.6328 52.293C66.2878 51.949 66.0058 52.24 66.0058 52.94C66.0058 53.759 66.6308 53.959 67.7558 53.499C68.7178 53.105 71.7558 52.216 74.5058 51.521C77.2558 50.827 80.2938 49.928 81.2558 49.523C82.2648 49.098 83.0058 49.221 83.0058 49.814C83.0058 50.379 81.5438 51.154 79.7558 51.536C76.6568 52.199 71.0688 54.817 70.0058 56.106C69.7308 56.439 67.8248 57.021 65.7708 57.398C62.6508 57.972 62.1338 57.831 62.6278 56.542C63.0098 55.547 62.6498 55 61.6128 55C58.6328 55 59.9768 52.316 63.7558 50.72C70.5218 47.862 74.6588 47.135 73.5018 49.007ZM163.006 51.059C163.006 51.577 161.795 52 160.315 52C157.753 52 157.716 51.932 159.554 50.589C161.516 49.154 163.006 49.357 163.006 51.059ZM130.256 51.392C132.72 53.263 132.488 53.772 128.384 55.487C123.927 57.349 120.618 57.474 121.422 55.75C121.743 55.063 122.276 53.737 122.608 52.804C123.155 51.265 124.794 50.376 127.506 50.148C128.056 50.101 129.294 50.661 130.256 51.392ZM148.27 51.704C147.04 51.941 144.79 51.947 143.27 51.718C141.75 51.488 142.756 51.294 145.506 51.286C148.256 51.279 149.5 51.467 148.27 51.704ZM154.275 54.656C153.598 54.93 152.248 54.947 151.275 54.693C150.302 54.439 150.856 54.215 152.506 54.195C154.156 54.175 154.952 54.382 154.275 54.656ZM160.275 54.656C159.598 54.93 158.248 54.947 157.275 54.693C156.302 54.439 156.856 54.215 158.506 54.195C160.156 54.175 160.952 54.382 160.275 54.656ZM165.006 55C165.006 55.55 164.304 56 163.447 56C162.59 56 162.166 55.55 162.506 55C162.846 54.45 163.547 54 164.065 54C164.583 54 165.006 54.45 165.006 55ZM48.7348 55.604C48.4028 55.936 47.5398 55.972 46.8188 55.683C46.0208 55.364 46.2578 55.127 47.4228 55.079C48.4768 55.036 49.0668 55.272 48.7348 55.604ZM139.506 56C139.166 56.55 137.988 57 136.888 57C135.788 57 135.166 56.55 135.506 56C135.846 55.45 137.024 55 138.124 55C139.224 55 139.846 55.45 139.506 56ZM147.006 56C147.006 56.55 146.331 57 145.506 57C144.681 57 144.006 56.55 144.006 56C144.006 55.45 144.681 55 145.506 55C146.331 55 147.006 55.45 147.006 56ZM26.0408 58.094C23.2338 58.644 21.2088 58.603 20.5908 57.985C19.9438 57.338 21.4788 57.038 25.0558 57.11L30.5058 57.219L26.0408 58.094ZM41.7348 57.604C41.4028 57.936 40.5398 57.972 39.8188 57.683C39.0208 57.364 39.2578 57.127 40.4228 57.079C41.4768 57.036 42.0668 57.272 41.7348 57.604ZM155.086 58.094C153.484 58.734 152.319 58.713 151.636 58.03C150.929 57.323 151.688 57.02 154.056 57.063C157.298 57.123 157.36 57.185 155.086 58.094ZM163.006 59C163.006 59.55 162.133 60 161.065 60C159.997 60 158.846 59.55 158.506 59C158.155 58.433 158.996 58 160.447 58C161.854 58 163.006 58.45 163.006 59ZM27.3678 62.5C27.0508 63.325 25.6718 64 24.3028 64C22.9348 64 20.6198 64.626 19.1598 65.392C17.6998 66.158 14.4808 67.559 12.0058 68.505C9.53077 69.451 5.81376 70.92 3.74576 71.769C-1.08524 73.752 -2.17524 72.788 2.42776 70.604C4.34876 69.692 6.19177 68.509 6.52277 67.973C6.85277 67.438 8.10976 66.997 9.31476 66.994C10.5198 66.99 12.7408 66.343 14.2508 65.556C15.7598 64.768 19.0278 63.819 21.5128 63.447C23.9978 63.074 26.2768 62.371 26.5768 61.885C27.4598 60.456 27.9928 60.87 27.3678 62.5ZM67.0058 65.332C67.0058 66.065 65.4308 67.148 63.5058 67.739C59.6108 68.934 59.2178 68.528 61.6608 65.829C63.5828 63.705 67.0058 63.387 67.0058 65.332ZM70.0058 76.465C70.0058 76.72 69.1058 77.411 68.0058 78C66.4098 78.854 66.0058 78.76 66.0058 77.535C66.0058 76.667 66.8748 76 68.0058 76C69.1058 76 70.0058 76.209 70.0058 76.465ZM75.9508 80.75C75.9198 81.163 74.5698 82.547 72.9508 83.826C69.7578 86.348 68.8478 84.937 71.6608 81.829C73.3068 80.01 76.0558 79.318 75.9508 80.75ZM175.863 88.11C173.706 89.476 172.647 89.137 173.997 87.511C174.677 86.692 175.68 86.298 176.226 86.636C176.83 87.009 176.687 87.587 175.863 88.11ZM156.006 88.893C156.006 90.017 153.405 91.066 152.604 90.264C151.4 89.061 152.057 88 154.006 88C155.106 88 156.006 88.402 156.006 88.893ZM181.006 91C181.006 91.55 180.529 92 179.947 92C179.365 92 179.166 91.55 179.506 91C179.846 90.45 180.322 90 180.565 90C180.808 90 181.006 90.45 181.006 91ZM194.292 99.619C195.05 100.378 192.558 103 191.077 103C189.657 103 189.718 101.688 191.206 100.2C192.547 98.859 193.376 98.703 194.292 99.619ZM200.006 105C200.006 105.55 199.556 106 199.006 106C198.456 106 198.006 105.55 198.006 105C198.006 104.45 198.456 104 199.006 104C199.556 104 200.006 104.45 200.006 105ZM194.453 107.085C194.131 107.606 193.442 107.769 192.921 107.447C192.4 107.125 192.237 106.436 192.559 105.915C192.881 105.394 193.57 105.231 194.091 105.553C194.612 105.875 194.775 106.564 194.453 107.085ZM67.0058 111.878C67.0058 112.91 67.7018 114.333 68.5528 115.039C70.6118 116.748 68.3698 118.265 65.8098 116.895C63.5368 115.678 63.2858 110 65.5058 110C66.3308 110 67.0058 110.845 67.0058 111.878ZM159.006 110.777C159.006 112.372 155.841 116 154.449 116C152.747 116 152.608 114.612 154.041 111.934C155.031 110.084 159.006 109.158 159.006 110.777ZM99.5058 112C99.8458 112.55 99.3958 113 98.5058 113C97.6158 113 97.1658 112.55 97.5058 112C97.8458 111.45 98.2958 111 98.5058 111C98.7158 111 99.1658 111.45 99.5058 112ZM87.8118 113.94C86.7328 115.667 82.8348 117.778 77.7558 119.384C75.1918 120.195 75.5648 122.349 78.1518 121.672C79.8248 121.235 79.5488 121.751 76.9018 124.015C75.0338 125.612 72.9438 126.937 72.2558 126.959C70.1848 127.027 70.8498 124.154 73.1958 122.898L75.3858 121.726L73.0848 119.863C71.0278 118.198 71.0778 117.544 73.2368 117.875C73.6388 117.937 75.6638 117.016 77.7368 115.828C79.8098 114.641 83.0808 113.346 85.0058 112.95C86.9308 112.554 88.6218 112.178 88.7638 112.115C88.9068 112.052 88.4778 112.873 87.8118 113.94ZM150.506 113C150.166 113.55 149.127 113.993 148.197 113.985C146.74 113.971 146.713 113.835 148.006 113C149.964 111.734 151.288 111.734 150.506 113ZM53.7348 113.604C53.4028 113.936 52.5398 113.972 51.8188 113.683C51.0208 113.364 51.2578 113.127 52.4228 113.079C53.4768 113.036 54.0668 113.272 53.7348 113.604ZM145.006 115.581C145.006 116.448 140.862 118.029 139.995 117.493C138.466 116.548 141.204 114.239 143.226 114.768C144.205 115.024 145.006 115.39 145.006 115.581ZM18.2748 115.656C17.5978 115.93 16.2478 115.947 15.2748 115.693C14.3018 115.439 14.8558 115.215 16.5058 115.195C18.1558 115.175 18.9518 115.382 18.2748 115.656ZM90.5058 117C90.1658 117.55 89.4648 118 88.9468 118C88.4288 118 88.0058 117.55 88.0058 117C88.0058 116.45 88.7078 116 89.5648 116C90.4218 116 90.8458 116.45 90.5058 117ZM97.0058 124C98.1188 124.72 97.5248 124.973 94.6968 124.985C92.4088 124.994 91.1348 124.601 91.5058 124C92.2868 122.736 95.0498 122.736 97.0058 124ZM65.5058 126C62.7748 127.174 62.0058 127.174 62.0058 126C62.0058 125.45 63.2438 125.032 64.7558 125.07C67.1928 125.133 67.2778 125.238 65.5058 126ZM234.368 154.5C234.051 155.325 233.445 156 233.021 156C232.598 156 231.691 155.325 231.006 154.5C229.954 153.232 230.162 153 232.352 153C234.244 153 234.788 153.405 234.368 154.5ZM243.206 170.2C242.273 171.133 241.739 171.133 240.806 170.2C239.873 169.267 240.139 169 242.006 169C243.873 169 244.139 169.267 243.206 170.2ZM109.768 171.687C108.812 171.937 107.012 171.946 105.768 171.707C104.524 171.468 105.306 171.263 107.506 171.252C109.706 171.241 110.724 171.437 109.768 171.687ZM120.006 171.969C120.006 172.501 119.331 172.678 118.506 172.362C117.681 172.045 117.006 171.609 117.006 171.393C117.006 171.177 117.681 171 118.506 171C119.331 171 120.006 171.436 120.006 171.969ZM133.275 174.656C132.598 174.93 131.248 174.947 130.275 174.693C129.302 174.439 129.856 174.215 131.506 174.195C133.156 174.175 133.952 174.382 133.275 174.656ZM146.506 175.853L150.506 176.592L147.429 177.236C145.736 177.591 142.136 177.273 139.429 176.53L134.506 175.179L138.506 175.147C140.706 175.13 144.306 175.447 146.506 175.853ZM231.11 178.296C229.826 179.58 228.525 178.588 229.475 177.05C229.843 176.455 230.602 176.251 231.162 176.597C231.845 177.019 231.828 177.578 231.11 178.296ZM363.006 214.969C363.006 215.501 362.331 215.678 361.506 215.362C360.681 215.045 360.006 214.609 360.006 214.393C360.006 214.177 360.681 214 361.506 214C362.331 214 363.006 214.436 363.006 214.969ZM402.699 341.731C402.445 342.704 402.221 342.15 402.201 340.5C402.181 338.85 402.388 338.054 402.662 338.731C402.936 339.408 402.953 340.758 402.699 341.731ZM418.804 347.628C418.474 350.272 418.405 350.202 417.927 346.751C417.629 344.601 417.782 343.376 418.285 343.879C418.768 344.362 419.001 346.049 418.804 347.628ZM381.699 354.731C381.445 355.704 381.221 355.15 381.201 353.5C381.181 351.85 381.388 351.054 381.662 351.731C381.936 352.408 381.953 353.758 381.699 354.731ZM424.713 379.238C424.474 380.482 424.269 379.7 424.258 377.5C424.247 375.3 424.443 374.282 424.693 375.238C424.943 376.194 424.952 377.994 424.713 379.238ZM382.006 395C382.006 395.55 381.556 396 381.006 396C380.456 396 380.006 395.55 380.006 395C380.006 394.45 380.456 394 381.006 394C381.556 394 382.006 394.45 382.006 395Z" fill="#1B1833"/>
</g>
<defs>
<clipPath id="clip0_7_74">
<rect width="1145" height="201" fill="white"/>
</clipPath>
</defs>
</svg>
