<svg width="1145" height="201" viewBox="0 0 1145 201" fill="none" xmlns="http://www.w3.org/2000/svg">
<rect width="1145" height="201" fill="white"/>
<path d="M50.7572 67.36H84.4069L129.85 177.586H94.9421L66.6386 100.066L37.3917 177.586H3.74207L50.7572 67.36ZM33.7752 136.074H97.4579V159.975H33.7752V136.074ZM134.745 67.36H162.577L218.083 140.32L209.435 143.308V67.36H239.311V177.586H211.479L156.13 104.941L164.778 101.953V177.586H134.745V67.36ZM308.529 65.3158C317.229 65.3158 325.196 66.731 332.429 69.5613C339.767 72.3917 346.109 76.3751 351.456 81.5117C356.907 86.6482 361.1 92.6758 364.035 99.5945C367.075 106.513 368.595 114.061 368.595 122.237C368.595 130.414 367.075 138.066 364.035 145.194C361.1 152.218 356.907 158.298 351.456 163.434C346.109 168.571 339.767 172.607 332.429 175.542C325.196 178.372 317.229 179.788 308.529 179.788C299.828 179.788 291.809 178.372 284.471 175.542C277.238 172.607 270.896 168.571 265.445 163.434C260.098 158.298 255.905 152.218 252.865 145.194C249.93 138.171 248.462 130.519 248.462 122.237C248.462 113.956 249.93 106.356 252.865 99.4372C255.905 92.5186 260.098 86.5434 265.445 81.5117C270.896 76.3751 277.238 72.3917 284.471 69.5613C291.809 66.731 299.828 65.3158 308.529 65.3158ZM309 92.5186C305.331 92.5186 301.82 93.2524 298.465 94.72C295.216 96.1876 292.333 98.2841 289.817 101.01C287.406 103.735 285.467 106.932 283.999 110.601C282.636 114.165 281.955 118.097 281.955 122.394C281.955 126.692 282.689 130.676 284.156 134.345C285.624 138.014 287.563 141.211 289.974 143.937C292.49 146.662 295.373 148.811 298.622 150.383C301.872 151.851 305.331 152.585 309 152.585C312.565 152.585 315.919 151.851 319.064 150.383C322.209 148.811 324.987 146.662 327.398 143.937C329.809 141.211 331.696 138.014 333.058 134.345C334.421 130.676 335.102 126.692 335.102 122.394C335.102 118.097 334.421 114.165 333.058 110.601C331.696 106.932 329.809 103.735 327.398 101.01C324.987 98.2841 322.209 96.1876 319.064 94.72C315.919 93.2524 312.565 92.5186 309 92.5186ZM431.768 67.36C440.469 67.36 447.964 68.5131 454.253 70.8193C460.543 73.1255 465.418 76.3751 468.877 80.5682C472.336 84.6565 474.066 89.531 474.066 95.1917C474.066 100.748 472.389 105.674 469.034 109.972C465.68 114.27 461.12 117.258 455.354 118.935C462.168 120.403 467.566 123.652 471.55 128.684C475.533 133.716 477.525 139.743 477.525 146.767C477.525 153.057 475.743 158.508 472.179 163.12C468.615 167.732 463.583 171.297 457.084 173.812C450.689 176.328 443.037 177.586 434.126 177.586H377.677V67.36H431.768ZM430.038 110.601C433.183 110.601 435.699 109.763 437.586 108.085C439.578 106.303 440.573 103.945 440.573 101.01C440.573 98.0745 439.578 95.8207 437.586 94.2482C435.699 92.6758 433.183 91.8896 430.038 91.8896H410.226V110.601H430.038ZM430.038 153.057C434.126 153.161 437.429 152.27 439.944 150.383C442.46 148.497 443.718 145.928 443.718 142.679C443.718 139.743 442.46 137.385 439.944 135.603C437.429 133.821 434.126 132.982 430.038 133.087H410.226V153.057H430.038ZM487.703 67.36H577.802V92.5186H520.409V109.815H572.456V134.974H520.409V152.428H579.375V177.586H487.703V67.36ZM628.374 67.36H662.023L707.466 177.586H672.558L644.255 100.066L615.008 177.586H581.358L628.374 67.36ZM611.392 136.074H675.074V159.975H611.392V136.074ZM791.458 102.897C787.684 100.695 783.543 98.651 779.035 96.7641C774.528 94.8772 770.125 93.3572 765.827 92.2041C761.634 91.051 757.965 90.4745 754.82 90.4745C752.095 90.4745 749.893 90.9986 748.216 92.0469C746.539 93.0951 745.7 94.72 745.7 96.9214C745.7 99.3324 746.696 101.324 748.688 102.897C750.784 104.364 753.562 105.622 757.022 106.67C760.481 107.719 764.255 108.819 768.343 109.972C772.431 111.021 776.52 112.383 780.608 114.061C784.696 115.633 788.418 117.677 791.772 120.193C795.231 122.604 798.009 125.801 800.106 129.785C802.202 133.663 803.251 138.485 803.251 144.251C803.251 152.218 801.154 158.822 796.961 164.063C792.873 169.2 787.369 173.079 780.451 175.699C773.637 178.215 766.089 179.473 757.808 179.473C751.518 179.473 745.176 178.739 738.782 177.272C732.387 175.804 726.255 173.76 720.384 171.139C714.619 168.519 709.43 165.321 704.817 161.548L717.082 136.703C720.856 139.953 725.206 142.888 730.133 145.509C735.165 148.025 740.144 150.069 745.071 151.641C750.103 153.109 754.453 153.843 758.122 153.843C761.686 153.843 764.464 153.214 766.456 151.956C768.448 150.593 769.444 148.601 769.444 145.981C769.444 143.57 768.395 141.63 766.299 140.163C764.202 138.59 761.424 137.28 757.965 136.232C754.611 135.183 750.837 134.135 746.644 133.087C742.555 132.039 738.467 130.781 734.379 129.313C730.395 127.741 726.674 125.749 723.215 123.338C719.755 120.927 716.977 117.834 714.881 114.061C712.889 110.287 711.893 105.57 711.893 99.9089C711.893 92.7807 713.78 86.5958 717.554 81.3545C721.328 76.0082 726.622 71.92 733.435 69.0896C740.249 66.2593 748.269 64.8441 757.493 64.8441C765.88 64.8441 774.161 66.0496 782.337 68.4607C790.514 70.7669 797.59 73.8593 803.565 77.7379L791.458 102.897ZM891.349 102.897C887.575 100.695 883.434 98.651 878.927 96.7641C874.419 94.8772 870.016 93.3572 865.718 92.2041C861.525 91.051 857.856 90.4745 854.712 90.4745C851.986 90.4745 849.785 90.9986 848.107 92.0469C846.43 93.0951 845.592 94.72 845.592 96.9214C845.592 99.3324 846.587 101.324 848.579 102.897C850.676 104.364 853.454 105.622 856.913 106.67C860.372 107.719 864.146 108.819 868.234 109.972C872.323 111.021 876.411 112.383 880.499 114.061C884.587 115.633 888.309 117.677 891.663 120.193C895.123 122.604 897.901 125.801 899.997 129.785C902.094 133.663 903.142 138.485 903.142 144.251C903.142 152.218 901.045 158.822 896.852 164.063C892.764 169.2 887.261 173.079 880.342 175.699C873.528 178.215 865.981 179.473 857.699 179.473C851.409 179.473 845.067 178.739 838.673 177.272C832.278 175.804 826.146 173.76 820.276 171.139C814.51 168.519 809.321 165.321 804.709 161.548L816.974 136.703C820.747 139.953 825.098 142.888 830.025 145.509C835.056 148.025 840.036 150.069 844.963 151.641C849.994 153.109 854.345 153.843 858.014 153.843C861.578 153.843 864.356 153.214 866.347 151.956C868.339 150.593 869.335 148.601 869.335 145.981C869.335 143.57 868.287 141.63 866.19 140.163C864.094 138.59 861.316 137.28 857.856 136.232C854.502 135.183 850.728 134.135 846.535 133.087C842.447 132.039 838.358 130.781 834.27 129.313C830.287 127.741 826.565 125.749 823.106 123.338C819.647 120.927 816.869 117.834 814.772 114.061C812.781 110.287 811.785 105.57 811.785 99.9089C811.785 92.7807 813.672 86.5958 817.445 81.3545C821.219 76.0082 826.513 71.92 833.327 69.0896C840.141 66.2593 848.16 64.8441 857.385 64.8441C865.771 64.8441 874.052 66.0496 882.229 68.4607C890.405 70.7669 897.481 73.8593 903.456 77.7379L891.349 102.897Z" fill="black"/>
<path d="M129.574 16.8966H136.179L144.48 45.1476H142.966L151.267 16.8966H157.321L165.622 45.1476H164.154L172.364 16.8966H178.739L167.869 49H161.494L153.423 21.8497H154.936L146.681 49H140.398L129.574 16.8966ZM181.865 16.8966H188.011V30.7469H204.016V16.8966H210.208V49H204.016V35.8376H188.011V49H181.865V16.8966ZM231.765 16.5297C234.18 16.5297 236.427 16.9424 238.507 17.7679C240.586 18.5934 242.39 19.7553 243.918 21.2534C245.478 22.7516 246.685 24.4944 247.541 26.4817C248.428 28.4385 248.871 30.5787 248.871 32.9024C248.871 35.1955 248.428 37.351 247.541 39.369C246.685 41.3869 245.478 43.1449 243.918 44.6431C242.39 46.1413 240.586 47.3184 238.507 48.1745C236.427 49 234.18 49.4128 231.765 49.4128C229.349 49.4128 227.102 49 225.023 48.1745C222.975 47.3184 221.171 46.1413 219.611 44.6431C218.052 43.1449 216.829 41.4022 215.942 39.4148C215.086 37.3969 214.658 35.2261 214.658 32.9024C214.658 30.5787 215.086 28.4232 215.942 26.4359C216.829 24.4485 218.052 22.721 219.611 21.2534C221.171 19.7553 222.975 18.5934 225.023 17.7679C227.102 16.9424 229.349 16.5297 231.765 16.5297ZM231.857 21.7121C230.358 21.7121 228.952 22.0025 227.637 22.5834C226.323 23.1338 225.161 23.9287 224.152 24.9683C223.143 25.9772 222.348 27.1544 221.767 28.4997C221.217 29.8449 220.941 31.3125 220.941 32.9024C220.941 34.4923 221.232 35.9752 221.813 37.351C222.394 38.6963 223.189 39.8887 224.198 40.9283C225.207 41.9678 226.368 42.778 227.683 43.359C228.998 43.9399 230.389 44.2303 231.857 44.2303C233.324 44.2303 234.7 43.9399 235.984 43.359C237.299 42.778 238.445 41.9678 239.424 40.9283C240.402 39.8887 241.167 38.6963 241.717 37.351C242.298 35.9752 242.588 34.4923 242.588 32.9024C242.588 31.3125 242.298 29.8449 241.717 28.4997C241.167 27.1544 240.402 25.9772 239.424 24.9683C238.445 23.9287 237.299 23.1338 235.984 22.5834C234.7 22.0025 233.324 21.7121 231.857 21.7121ZM255.228 21.1159C253.913 21.1159 252.95 20.8101 252.338 20.1986C251.757 19.5871 251.467 18.8686 251.467 18.0431C251.467 17.1564 251.757 16.4226 252.338 15.8417C252.919 15.2608 253.668 14.9703 254.585 14.9703C255.38 14.9703 256.084 15.2455 256.695 15.7959C257.307 16.3156 257.612 17.0647 257.612 18.0431C257.612 18.5017 257.521 18.9451 257.337 19.3731C257.184 19.7706 257.001 20.1528 256.787 20.5197L253.898 25.9772H250.917L253.714 18.3641L255.228 21.1159ZM282.731 24.8307C281.6 24.1275 280.438 23.5466 279.246 23.0879C278.084 22.6293 276.983 22.3083 275.944 22.1248C274.904 21.9108 273.956 21.8038 273.1 21.8038C271.663 21.8038 270.501 22.079 269.615 22.6293C268.759 23.1797 268.331 23.9899 268.331 25.06C268.331 26.0384 268.636 26.8333 269.248 27.4448C269.89 28.0563 270.715 28.5608 271.724 28.9583C272.764 29.3557 273.895 29.7379 275.118 30.1048C276.341 30.4717 277.564 30.8845 278.787 31.3431C280.01 31.7711 281.126 32.3368 282.135 33.04C283.175 33.7432 284 34.6452 284.612 35.7459C285.223 36.8466 285.529 38.2224 285.529 39.8734C285.529 41.8608 284.994 43.5577 283.924 44.9641C282.853 46.3706 281.386 47.456 279.521 48.2203C277.686 48.9847 275.592 49.3669 273.238 49.3669C271.526 49.3669 269.844 49.1529 268.193 48.7248C266.572 48.2662 265.028 47.6547 263.561 46.8903C262.124 46.126 260.824 45.2393 259.663 44.2303L262.231 39.2314C263.332 40.2403 264.524 41.1117 265.808 41.8455C267.092 42.5487 268.376 43.0991 269.661 43.4966C270.975 43.8634 272.198 44.0469 273.329 44.0469C275.072 44.0469 276.418 43.7106 277.365 43.0379C278.344 42.3653 278.833 41.4175 278.833 40.1945C278.833 39.1855 278.512 38.3753 277.87 37.7638C277.258 37.1523 276.448 36.6478 275.439 36.2503C274.43 35.8223 273.299 35.4554 272.045 35.1497C270.822 34.8133 269.599 34.4311 268.376 34.0031C267.153 33.5445 266.022 32.9789 264.983 32.3062C263.974 31.603 263.148 30.7163 262.506 29.6462C261.895 28.5761 261.589 27.2155 261.589 25.5645C261.589 23.6994 262.093 22.0943 263.102 20.749C264.111 19.3731 265.502 18.3183 267.276 17.5845C269.08 16.8201 271.189 16.4379 273.605 16.4379C275.745 16.4379 277.824 16.7437 279.842 17.3552C281.89 17.9667 283.679 18.7769 285.208 19.7859L282.731 24.8307Z" fill="black"/>
<path d="M930.169 76.5137C927.068 76.5137 924.163 75.9459 921.455 74.8103C918.791 73.631 916.454 72.0149 914.445 69.962C912.436 67.9091 910.863 65.5505 909.728 62.8862C908.636 60.1781 908.09 57.3172 908.09 54.3034C908.09 51.2896 908.657 48.4287 909.793 45.7206C910.929 43.0126 912.501 40.6321 914.51 38.5793C916.519 36.5264 918.856 34.9103 921.521 33.731C924.229 32.5517 927.155 31.962 930.3 31.962C933.401 31.962 936.284 32.5517 938.948 33.731C941.656 34.8666 944.015 36.4609 946.024 38.5137C948.033 40.5229 949.606 42.8816 950.741 45.5896C951.877 48.254 952.445 51.1149 952.445 54.1724C952.445 57.1862 951.877 60.0471 950.741 62.7551C949.606 65.4632 948.011 67.8436 945.959 69.8965C943.949 71.9494 941.591 73.5655 938.883 74.7448C936.218 75.9241 933.314 76.5137 930.169 76.5137ZM930.496 65.6379C928.313 65.6379 926.325 65.1356 924.534 64.131C922.787 63.1264 921.39 61.7724 920.341 60.0689C919.337 58.3218 918.834 56.3781 918.834 54.2379C918.834 52.0976 919.359 50.1976 920.407 48.5379C921.455 46.8344 922.875 45.4804 924.665 44.4758C926.456 43.4712 928.444 42.9689 930.628 42.9689C932.2 42.9689 933.751 43.2747 935.279 43.8861C936.808 44.4976 938.118 45.3494 939.21 46.4413L936.917 49.062C936.087 48.1884 935.126 47.5114 934.034 47.031C932.942 46.5505 931.829 46.3103 930.693 46.3103C929.208 46.3103 927.854 46.6597 926.631 47.3586C925.452 48.0574 924.513 48.9965 923.814 50.1758C923.115 51.3551 922.765 52.6873 922.765 54.1724C922.765 55.6574 923.115 57.0114 923.814 58.2344C924.513 59.4137 925.452 60.3747 926.631 61.1172C927.854 61.816 929.208 62.1655 930.693 62.1655C931.785 62.1655 932.877 61.9471 933.969 61.5103C935.105 61.0298 936.087 60.3747 936.917 59.5448L939.21 61.9689C938.075 63.0609 936.742 63.9563 935.214 64.6551C933.685 65.3103 932.113 65.6379 930.496 65.6379ZM930.169 72.7793C932.79 72.7793 935.214 72.2988 937.441 71.3379C939.713 70.3333 941.678 68.9793 943.338 67.2758C945.041 65.5724 946.352 63.6068 947.269 61.3793C948.23 59.108 948.71 56.7057 948.71 54.1724C948.71 51.639 948.23 49.2586 947.269 47.031C946.352 44.8034 945.063 42.8379 943.403 41.1344C941.744 39.431 939.8 38.0988 937.572 37.1379C935.345 36.177 932.921 35.6965 930.3 35.6965C927.679 35.6965 925.233 36.1988 922.962 37.2034C920.734 38.1643 918.791 39.4965 917.131 41.1999C915.471 42.9034 914.161 44.8907 913.2 47.162C912.283 49.3896 911.824 51.7701 911.824 54.3034C911.824 56.8367 912.283 59.2172 913.2 61.4448C914.117 63.6724 915.406 65.6379 917.065 67.3413C918.725 69.0448 920.669 70.377 922.896 71.3379C925.124 72.2988 927.548 72.7793 930.169 72.7793Z" fill="black"/>
</svg>
